<?xml version="1.0" encoding="UTF-8"?>
<!DOCTYPE svg PUBLIC "-//W3C//DTD SVG 1.1//EN" "http://www.w3.org/Graphics/SVG/1.1/DTD/svg11.dtd">
<!-- Creator: CorelDRAW 2020 (64-Bit) -->
<svg xmlns="http://www.w3.org/2000/svg" xml:space="preserve" width="2000px" height="2000px" version="1.1" style="shape-rendering:geometricPrecision; text-rendering:geometricPrecision; image-rendering:optimizeQuality; fill-rule:evenodd; clip-rule:evenodd"
viewBox="0 0 2000 2000"
 xmlns:xlink="http://www.w3.org/1999/xlink"
 xmlns:xodm="http://www.corel.com/coreldraw/odm/2003">
 <defs>
  <style type="text/css">
   <![CDATA[
    .str1 {stroke:#222222;stroke-width:25;stroke-miterlimit:2.61313}
    .str0 {stroke:#222222;stroke-width:25;stroke-linejoin:bevel;stroke-miterlimit:2.61313}
    .fil0 {fill:none}
    .fil2 {fill:#FEFEFE}
    .fil1 {fill:#0EA5E9}
   ]]>
  </style>
 </defs>
 <g id="New_Morph_x0020_-_x0020_General">
  <metadata id="CorelCorpID_0Corel-Layer"/>
  <line class="fil0 str0" x1="379.51" y1="1477.02" x2="405.86" y2= "1539.57" />
  <line class="fil0 str0" x1="435.95" y1="1598.29" x2="405.86" y2= "1539.57" />
  <line class="fil0 str0" x1="435.95" y1="1598.29" x2="469.51" y2= "1652.35" />
  <line class="fil0 str0" x1="379.51" y1="1477.02" x2="357.16" y2= "1411.47" />
  <line class="fil0 str0" x1="469.51" y1="1652.35" x2="506.19" y2= "1700.88" />
  <line class="fil0 str0" x1="506.19" y1="1700.88" x2="545.58" y2= "1743.05" />
  <line class="fil0 str0" x1="587.23" y1="1778.01" x2="545.58" y2= "1743.05" />
  <line class="fil0 str0" x1="587.23" y1="1778.01" x2="630.6" y2= "1804.94" />
  <line class="fil0 str0" x1="630.6" y1="1804.94" x2="675.09" y2= "1823.06" />
  <line class="fil0 str0" x1="675.09" y1="1823.06" x2="720.01" y2= "1831.69" />
  <line class="fil0 str0" x1="720.01" y1="1831.69" x2="764.62" y2= "1830.23" />
  <line class="fil0 str0" x1="764.62" y1="1830.23" x2="808.09" y2= "1818.21" />
  <line class="fil0 str0" x1="808.09" y1="1818.21" x2="849.55" y2= "1795.37" />
  <line class="fil0 str0" x1="849.55" y1="1795.37" x2="888.09" y2= "1761.66" />
  <line class="fil0 str0" x1="888.09" y1="1761.66" x2="922.78" y2= "1717.28" />
  <line class="fil0 str0" x1="529.72" y1="1364.93" x2="542.83" y2= "1389.08" />
  <line class="fil0 str0" x1="542.83" y1="1389.08" x2="557.32" y2= "1410.88" />
  <line class="fil0 str0" x1="573" y1="1429.97" x2="557.32" y2= "1410.88" />
  <line class="fil0 str0" x1="606.95" y1="1458.72" x2="589.62" y2= "1446.02" />
  <line class="fil0 str0" x1="589.62" y1="1446.02" x2="573" y2= "1429.97" />
  <line class="fil0 str0" x1="624.7" y1="1467.8" x2="606.95" y2= "1458.72" />
  <line class="fil0 str0" x1="624.7" y1="1467.8" x2="642.6" y2= "1473.06" />
  <line class="fil0 str0" x1="642.6" y1="1473.06" x2="660.34" y2= "1474.34" />
  <line class="fil0 str0" x1="660.34" y1="1474.34" x2="677.62" y2= "1471.54" />
  <line class="fil0 str0" x1="677.62" y1="1471.54" x2="694.12" y2= "1464.63" />
  <line class="fil0 str0" x1="694.12" y1="1464.63" x2="709.55" y2= "1453.66" />
  <line class="fil0 str0" x1="357.16" y1="1411.47" x2="28.08" y2= "327.83" />
  <line class="fil0 str0" x1="28.08" y1="327.83" x2="149.13" y2= "168.3" />
  <line class="fil0 str0" x1="508.38" y1="1311.18" x2="149.13" y2= "168.3" />
  <line class="fil0 str0" x1="518.19" y1="1338.83" x2="508.38" y2= "1311.18" />
  <line class="fil0 str0" x1="518.19" y1="1338.83" x2="529.72" y2= "1364.93" />
  <line class="fil0 str0" x1="709.55" y1="1453.66" x2="723.59" y2= "1438.76" />
  <line class="fil0 str0" x1="723.59" y1="1438.76" x2="735.97" y2= "1420.14" />
  <line class="fil0 str0" x1="735.97" y1="1420.14" x2="746.43" y2= "1398.08" />
  <line class="fil0 str0" x1="873.87" y1="1078.11" x2="746.43" y2= "1398.08" />
  <line class="fil0 str0" x1="873.87" y1="1078.11" x2="875.38" y2= "1074.36" />
  <line class="fil0 str0" x1="875.38" y1="1074.36" x2="876.94" y2= "1070.6" />
  <line class="fil0 str0" x1="876.94" y1="1070.6" x2="878.55" y2= "1066.84" />
  <line class="fil0 str0" x1="878.55" y1="1066.84" x2="880.21" y2= "1063.06" />
  <line class="fil0 str0" x1="1087.7" y1="1730.05" x2="808.09" y2= "1818.21" />
  <line class="fil0 str0" x1="424.65" y1="172.71" x2="149.13" y2= "168.3" />
  <line class="fil0 str0" x1="880.21" y1="1063.06" x2="881.92" y2= "1059.27" />
  <line class="fil0 str0" x1="881.92" y1="1059.27" x2="883.67" y2= "1055.47" />
  <line class="fil0 str0" x1="883.67" y1="1055.47" x2="885.47" y2= "1051.66" />
  <line class="fil0 str0" x1="885.47" y1="1051.66" x2="887.32" y2= "1047.84" />
  <line class="fil0 str0" x1="889.22" y1="1044.02" x2="887.32" y2= "1047.84" />
  <line class="fil0 str0" x1="1087.7" y1="1730.05" x2="1130.81" y2= "1707.25" />
  <line class="fil0 str0" x1="783.8" y1="1255.91" x2="424.65" y2= "172.71" />
  <line class="fil0 str0" x1="793.16" y1="1280.76" x2="783.8" y2= "1255.91" />
  <line class="fil0 str0" x1="891.16" y1="1040.19" x2="889.22" y2= "1044.02" />
  <line class="fil0 str0" x1="893.15" y1="1036.35" x2="891.16" y2= "1040.19" />
  <line class="fil0 str0" x1="895.18" y1="1032.51" x2="893.15" y2= "1036.35" />
  <line class="fil0 str0" x1="897.26" y1="1028.66" x2="895.18" y2= "1032.51" />
  <line class="fil0 str0" x1="899.39" y1="1024.81" x2="897.26" y2= "1028.66" />
  <line class="fil0 str0" x1="901.56" y1="1020.96" x2="899.39" y2= "1024.81" />
  <line class="fil0 str0" x1="903.78" y1="1017.1" x2="901.56" y2= "1020.96" />
  <line class="fil0 str0" x1="906.04" y1="1013.24" x2="903.78" y2= "1017.1" />
  <line class="fil0 str0" x1="908.35" y1="1009.38" x2="906.04" y2= "1013.24" />
  <line class="fil0 str0" x1="910.69" y1="1005.52" x2="908.35" y2= "1009.38" />
  <line class="fil0 str0" x1="913.09" y1="1001.66" x2="910.69" y2= "1005.52" />
  <line class="fil0 str0" x1="915.52" y1="997.8" x2="913.09" y2= "1001.66" />
  <line class="fil0 str0" x1="918" y1="993.94" x2="915.52" y2= "997.8" />
  <line class="fil0 str0" x1="920.52" y1="990.09" x2="918" y2= "993.94" />
  <line class="fil0 str0" x1="923.09" y1="986.23" x2="920.52" y2= "990.09" />
  <line class="fil0 str0" x1="925.69" y1="982.39" x2="923.09" y2= "986.23" />
  <line class="fil0 str0" x1="928.34" y1="978.54" x2="925.69" y2= "982.39" />
  <line class="fil0 str0" x1="931.02" y1="974.7" x2="928.34" y2= "978.54" />
  <line class="fil0 str0" x1="933.75" y1="970.87" x2="931.02" y2= "974.7" />
  <line class="fil0 str0" x1="936.51" y1="967.04" x2="933.75" y2= "970.87" />
  <line class="fil0 str0" x1="939.32" y1="963.22" x2="936.51" y2= "967.04" />
  <line class="fil0 str0" x1="942.16" y1="959.41" x2="939.32" y2= "963.22" />
  <line class="fil0 str0" x1="945.05" y1="955.61" x2="942.16" y2= "959.41" />
  <line class="fil0 str0" x1="947.97" y1="951.82" x2="945.05" y2= "955.61" />
  <line class="fil0 str0" x1="950.92" y1="948.03" x2="947.97" y2= "951.82" />
  <line class="fil0 str0" x1="953.92" y1="944.26" x2="950.92" y2= "948.03" />
  <line class="fil0 str0" x1="956.95" y1="940.5" x2="953.92" y2= "944.26" />
  <line class="fil0 str0" x1="960.01" y1="936.76" x2="956.95" y2= "940.5" />
  <line class="fil0 str0" x1="963.11" y1="933.02" x2="960.01" y2= "936.76" />
  <line class="fil0 str0" x1="966.25" y1="929.3" x2="963.11" y2= "933.02" />
  <line class="fil0 str0" x1="969.42" y1="925.6" x2="966.25" y2= "929.3" />
  <line class="fil0 str0" x1="972.62" y1="921.91" x2="969.42" y2= "925.6" />
  <line class="fil0 str0" x1="975.86" y1="918.23" x2="972.62" y2= "921.91" />
  <line class="fil0 str0" x1="979.12" y1="914.58" x2="975.86" y2= "918.23" />
  <line class="fil0 str0" x1="982.42" y1="910.93" x2="979.12" y2= "914.58" />
  <line class="fil0 str0" x1="985.75" y1="907.31" x2="982.42" y2= "910.93" />
  <line class="fil0 str0" x1="989.11" y1="903.71" x2="985.75" y2= "907.31" />
  <line class="fil0 str0" x1="992.51" y1="900.12" x2="989.11" y2= "903.71" />
  <line class="fil0 str0" x1="995.93" y1="896.56" x2="992.51" y2= "900.12" />
  <line class="fil0 str0" x1="999.37" y1="893.02" x2="995.93" y2= "896.56" />
  <line class="fil0 str0" x1="1002.85" y1="889.49" x2="999.37" y2= "893.02" />
  <line class="fil0 str0" x1="1006.35" y1="886" x2="1002.85" y2= "889.49" />
  <line class="fil0 str0" x1="1009.88" y1="882.52" x2="1006.35" y2= "886" />
  <line class="fil0 str0" x1="1130.81" y1="1707.25" x2="1170.98" y2= "1674.28" />
  <line class="fil0 str0" x1="1170.98" y1="1674.28" x2="1207.28" y2= "1631.39" />
  <line class="fil0 str0" x1="922.78" y1="1717.28" x2="952.73" y2= "1662.75" />
  <line class="fil0 str0" x1="1100.89" y1="1340.52" x2="952.73" y2= "1662.75" />
  <line class="fil0 str0" x1="1207.28" y1="1631.39" x2="1238.79" y2= "1579.1" />
  <line class="fil0 str0" x1="1238.79" y1="1579.1" x2="1394.66" y2= "1272.21" />
  <line class="fil0 str0" x1="1013.44" y1="879.07" x2="1009.88" y2= "882.52" />
  <line class="fil0 str0" x1="1017.02" y1="875.64" x2="1013.44" y2= "879.07" />
  <line class="fil0 str0" x1="1020.63" y1="872.23" x2="1017.02" y2= "875.64" />
  <line class="fil0 str0" x1="1024.26" y1="868.85" x2="1020.63" y2= "872.23" />
  <line class="fil0 str0" x1="1027.91" y1="865.5" x2="1024.26" y2= "868.85" />
  <line class="fil0 str0" x1="1031.59" y1="862.17" x2="1027.91" y2= "865.5" />
  <line class="fil0 str0" x1="1035.28" y1="858.87" x2="1031.59" y2= "862.17" />
  <line class="fil0 str0" x1="1039" y1="855.6" x2="1035.28" y2= "858.87" />
  <line class="fil0 str0" x1="1042.74" y1="852.36" x2="1039" y2= "855.6" />
  <line class="fil0 str0" x1="1046.5" y1="849.15" x2="1042.74" y2= "852.36" />
  <line class="fil0 str0" x1="1050.28" y1="845.96" x2="1046.5" y2= "849.15" />
  <line class="fil0 str0" x1="1054.07" y1="842.81" x2="1050.28" y2= "845.96" />
  <line class="fil0 str0" x1="1057.89" y1="839.69" x2="1054.07" y2= "842.81" />
  <line class="fil0 str0" x1="1061.72" y1="836.6" x2="1057.89" y2= "839.69" />
  <line class="fil0 str0" x1="1065.56" y1="833.54" x2="1061.72" y2= "836.6" />
  <line class="fil0 str0" x1="1069.42" y1="830.51" x2="1065.56" y2= "833.54" />
  <line class="fil0 str0" x1="1100.89" y1="1340.52" x2="1102.65" y2= "1336.73" />
  <line class="fil0 str0" x1="1102.65" y1="1336.73" x2="1104.47" y2= "1332.93" />
  <line class="fil0 str0" x1="1104.47" y1="1332.93" x2="1106.33" y2= "1329.11" />
  <line class="fil0 str0" x1="1106.33" y1="1329.11" x2="1108.24" y2= "1325.28" />
  <line class="fil0 str0" x1="1108.24" y1="1325.28" x2="1110.19" y2= "1321.44" />
  <line class="fil0 str0" x1="1110.19" y1="1321.44" x2="1112.2" y2= "1317.58" />
  <line class="fil0 str0" x1="1112.2" y1="1317.58" x2="1114.26" y2= "1313.71" />
  <line class="fil0 str0" x1="1114.26" y1="1313.71" x2="1116.36" y2= "1309.83" />
  <line class="fil0 str0" x1="1116.36" y1="1309.83" x2="1118.51" y2= "1305.94" />
  <line class="fil0 str0" x1="1118.51" y1="1305.94" x2="1120.71" y2= "1302.03" />
  <line class="fil0 str0" x1="1120.71" y1="1302.03" x2="1122.95" y2= "1298.12" />
  <line class="fil0 str0" x1="1122.95" y1="1298.12" x2="1125.24" y2= "1294.2" />
  <line class="fil0 str0" x1="1125.24" y1="1294.2" x2="1127.58" y2= "1290.27" />
  <line class="fil0 str0" x1="1127.58" y1="1290.27" x2="1129.97" y2= "1286.34" />
  <line class="fil0 str0" x1="1129.97" y1="1286.34" x2="1132.39" y2= "1282.39" />
  <line class="fil0 str0" x1="1132.39" y1="1282.39" x2="1134.87" y2= "1278.44" />
  <line class="fil0 str0" x1="1134.87" y1="1278.44" x2="1137.39" y2= "1274.49" />
  <line class="fil0 str0" x1="1137.39" y1="1274.49" x2="1139.95" y2= "1270.53" />
  <line class="fil0 str0" x1="1139.95" y1="1270.53" x2="1142.56" y2= "1266.57" />
  <line class="fil0 str0" x1="1142.56" y1="1266.57" x2="1145.21" y2= "1262.6" />
  <line class="fil0 str0" x1="1145.21" y1="1262.6" x2="1147.9" y2= "1258.64" />
  <line class="fil0 str0" x1="1147.9" y1="1258.64" x2="1150.64" y2= "1254.67" />
  <line class="fil0 str0" x1="1150.64" y1="1254.67" x2="1153.42" y2= "1250.7" />
  <line class="fil0 str0" x1="1153.42" y1="1250.7" x2="1156.24" y2= "1246.73" />
  <line class="fil0 str0" x1="1156.24" y1="1246.73" x2="1159.11" y2= "1242.76" />
  <line class="fil0 str0" x1="1159.11" y1="1242.76" x2="1162.01" y2= "1238.79" />
  <line class="fil0 str0" x1="1162.01" y1="1238.79" x2="1164.95" y2= "1234.82" />
  <line class="fil0 str0" x1="1164.95" y1="1234.82" x2="1167.94" y2= "1230.86" />
  <line class="fil0 str0" x1="1167.94" y1="1230.86" x2="1170.96" y2= "1226.9" />
  <line class="fil0 str0" x1="1170.96" y1="1226.9" x2="1174.02" y2= "1222.95" />
  <line class="fil0 str0" x1="1174.02" y1="1222.95" x2="1177.12" y2= "1219" />
  <line class="fil0 str0" x1="1177.12" y1="1219" x2="1180.26" y2= "1215.05" />
  <line class="fil0 str0" x1="1180.26" y1="1215.05" x2="1183.43" y2= "1211.12" />
  <line class="fil0 str0" x1="1183.43" y1="1211.12" x2="1186.65" y2= "1207.19" />
  <line class="fil0 str0" x1="1186.65" y1="1207.19" x2="1189.89" y2= "1203.27" />
  <line class="fil0 str0" x1="1189.89" y1="1203.27" x2="1193.18" y2= "1199.35" />
  <line class="fil0 str0" x1="1193.18" y1="1199.35" x2="1196.5" y2= "1195.45" />
  <line class="fil0 str0" x1="1196.5" y1="1195.45" x2="1199.85" y2= "1191.56" />
  <line class="fil0 str0" x1="1199.85" y1="1191.56" x2="1203.23" y2= "1187.68" />
  <line class="fil0 str0" x1="1203.23" y1="1187.68" x2="1206.65" y2= "1183.81" />
  <line class="fil0 str0" x1="1206.65" y1="1183.81" x2="1210.1" y2= "1179.95" />
  <line class="fil0 str0" x1="1210.1" y1="1179.95" x2="1213.59" y2= "1176.11" />
  <line class="fil0 str0" x1="1213.59" y1="1176.11" x2="1217.1" y2= "1172.28" />
  <line class="fil0 str0" x1="1217.1" y1="1172.28" x2="1220.65" y2= "1168.47" />
  <line class="fil0 str0" x1="1220.65" y1="1168.47" x2="1224.22" y2= "1164.67" />
  <line class="fil0 str0" x1="1224.22" y1="1164.67" x2="1227.82" y2= "1160.89" />
  <line class="fil0 str0" x1="1227.82" y1="1160.89" x2="1231.46" y2= "1157.12" />
  <line class="fil0 str0" x1="1231.46" y1="1157.12" x2="1235.12" y2= "1153.37" />
  <line class="fil0 str0" x1="1235.12" y1="1153.37" x2="1238.8" y2= "1149.65" />
  <line class="fil0 str0" x1="1238.8" y1="1149.65" x2="1242.52" y2= "1145.94" />
  <line class="fil0 str0" x1="1242.52" y1="1145.94" x2="1246.26" y2= "1142.25" />
  <line class="fil0 str0" x1="1246.26" y1="1142.25" x2="1250.02" y2= "1138.58" />
  <line class="fil0 str0" x1="1250.02" y1="1138.58" x2="1253.81" y2= "1134.93" />
  <line class="fil0 str0" x1="1253.81" y1="1134.93" x2="1257.62" y2= "1131.31" />
  <line class="fil0 str0" x1="1257.62" y1="1131.31" x2="1261.46" y2= "1127.71" />
  <line class="fil0 str0" x1="1261.46" y1="1127.71" x2="1265.31" y2= "1124.13" />
  <line class="fil0 str0" x1="1265.31" y1="1124.13" x2="1269.19" y2= "1120.57" />
  <line class="fil0 str0" x1="1269.19" y1="1120.57" x2="1273.09" y2= "1117.04" />
  <line class="fil0 str0" x1="1073.3" y1="827.52" x2="1069.42" y2= "830.51" />
  <line class="fil0 str0" x1="1273.09" y1="1117.04" x2="1277.01" y2= "1113.54" />
  <line class="fil0 str0" x1="1277.01" y1="1113.54" x2="1280.95" y2= "1110.06" />
  <line class="fil0 str0" x1="1280.95" y1="1110.06" x2="1284.9" y2= "1106.61" />
  <line class="fil0 str0" x1="1284.9" y1="1106.61" x2="1288.88" y2= "1103.19" />
  <line class="fil0 str0" x1="1288.88" y1="1103.19" x2="1292.87" y2= "1099.79" />
  <line class="fil0 str0" x1="1292.87" y1="1099.79" x2="1296.88" y2= "1096.42" />
  <line class="fil0 str0" x1="1296.88" y1="1096.42" x2="1300.9" y2= "1093.09" />
  <line class="fil0 str0" x1="1300.9" y1="1093.09" x2="1304.93" y2= "1089.78" />
  <line class="fil0 str0" x1="1304.93" y1="1089.78" x2="1308.99" y2= "1086.5" />
  <line class="fil0 str0" x1="1308.99" y1="1086.5" x2="1313.05" y2= "1083.26" />
  <line class="fil0 str0" x1="1313.05" y1="1083.26" x2="1317.13" y2= "1080.05" />
  <line class="fil0 str0" x1="1077.19" y1="824.56" x2="1073.3" y2= "827.52" />
  <line class="fil0 str0" x1="1317.13" y1="1080.05" x2="1321.21" y2= "1076.87" />
  <line class="fil0 str0" x1="1321.21" y1="1076.87" x2="1325.31" y2= "1073.72" />
  <line class="fil0 str0" x1="1325.31" y1="1073.72" x2="1329.42" y2= "1070.61" />
  <line class="fil0 str0" x1="1329.42" y1="1070.61" x2="1333.54" y2= "1067.53" />
  <line class="fil0 str0" x1="1333.54" y1="1067.53" x2="1337.66" y2= "1064.48" />
  <line class="fil0 str0" x1="1337.66" y1="1064.48" x2="1341.79" y2= "1061.47" />
  <line class="fil0 str0" x1="1341.79" y1="1061.47" x2="1345.93" y2= "1058.5" />
  <line class="fil0 str0" x1="1345.93" y1="1058.5" x2="1350.08" y2= "1055.56" />
  <line class="fil0 str0" x1="1081.1" y1="821.64" x2="1077.19" y2= "824.56" />
  <line class="fil0 str0" x1="1085.01" y1="818.75" x2="1081.1" y2= "821.64" />
  <line class="fil0 str0" x1="1088.94" y1="815.9" x2="1085.01" y2= "818.75" />
  <line class="fil0 str0" x1="1092.88" y1="813.08" x2="1088.94" y2= "815.9" />
  <line class="fil0 str0" x1="1096.83" y1="810.29" x2="1092.88" y2= "813.08" />
  <line class="fil0 str0" x1="1100.79" y1="807.55" x2="1096.83" y2= "810.29" />
  <line class="fil0 str0" x1="1104.75" y1="804.84" x2="1100.79" y2= "807.55" />
  <line class="fil0 str0" x1="1108.73" y1="802.17" x2="1104.75" y2= "804.84" />
  <line class="fil0 str0" x1="1112.71" y1="799.54" x2="1108.73" y2= "802.17" />
  <line class="fil0 str0" x1="1116.7" y1="796.95" x2="1112.71" y2= "799.54" />
  <line class="fil0 str0" x1="1120.69" y1="794.4" x2="1116.7" y2= "796.95" />
  <line class="fil0 str0" x1="1124.69" y1="791.88" x2="1120.69" y2= "794.4" />
  <line class="fil0 str0" x1="1128.7" y1="789.41" x2="1124.69" y2= "791.88" />
  <line class="fil0 str0" x1="1132.7" y1="786.98" x2="1128.7" y2= "789.41" />
  <line class="fil0 str0" x1="1136.71" y1="784.59" x2="1132.7" y2= "786.98" />
  <line class="fil0 str0" x1="1140.72" y1="782.24" x2="1136.71" y2= "784.59" />
  <line class="fil0 str0" x1="1144.74" y1="779.93" x2="1140.72" y2= "782.24" />
  <line class="fil0 str0" x1="1148.75" y1="777.66" x2="1144.74" y2= "779.93" />
  <line class="fil0 str0" x1="1152.76" y1="775.44" x2="1148.75" y2= "777.66" />
  <line class="fil0 str0" x1="1156.77" y1="773.26" x2="1152.76" y2= "775.44" />
  <line class="fil0 str0" x1="1160.78" y1="771.12" x2="1156.77" y2= "773.26" />
  <line class="fil0 str0" x1="1164.79" y1="769.02" x2="1160.78" y2= "771.12" />
  <line class="fil0 str0" x1="1168.8" y1="766.97" x2="1164.79" y2= "769.02" />
  <line class="fil0 str0" x1="1172.8" y1="764.97" x2="1168.8" y2= "766.97" />
  <line class="fil0 str0" x1="1176.79" y1="763.01" x2="1172.8" y2= "764.97" />
  <line class="fil0 str0" x1="1180.78" y1="761.09" x2="1176.79" y2= "763.01" />
  <line class="fil0 str0" x1="1184.76" y1="759.22" x2="1180.78" y2= "761.09" />
  <line class="fil0 str0" x1="1188.74" y1="757.4" x2="1184.76" y2= "759.22" />
  <line class="fil0 str0" x1="1192.71" y1="755.62" x2="1188.74" y2= "757.4" />
  <line class="fil0 str0" x1="1528.06" y1="1241.19" x2="1394.66" y2= "1272.21" />
  <line class="fil0 str0" x1="1196.67" y1="753.88" x2="1192.71" y2= "755.62" />
  <line class="fil0 str0" x1="1200.62" y1="752.19" x2="1196.67" y2= "753.88" />
  <line class="fil0 str0" x1="1204.56" y1="750.55" x2="1200.62" y2= "752.19" />
  <line class="fil0 str0" x1="1208.5" y1="748.96" x2="1204.56" y2= "750.55" />
  <line class="fil0 str0" x1="1212.42" y1="747.41" x2="1208.5" y2= "748.96" />
  <line class="fil0 str0" x1="1216.32" y1="745.91" x2="1212.42" y2= "747.41" />
  <line class="fil0 str0" x1="1220.22" y1="744.46" x2="1216.32" y2= "745.91" />
  <line class="fil0 str0" x1="1224.1" y1="743.05" x2="1220.22" y2= "744.46" />
  <line class="fil0 str0" x1="1227.97" y1="741.69" x2="1224.1" y2= "743.05" />
  <line class="fil0 str0" x1="1231.82" y1="740.38" x2="1227.97" y2= "741.69" />
  <line class="fil0 str0" x1="1235.66" y1="739.12" x2="1231.82" y2= "740.38" />
  <line class="fil0 str0" x1="1239.49" y1="737.91" x2="1235.66" y2= "739.12" />
  <line class="fil0 str0" x1="1243.29" y1="736.74" x2="1239.49" y2= "737.91" />
  <line class="fil0 str0" x1="1247.08" y1="735.62" x2="1243.29" y2= "736.74" />
  <line class="fil0 str0" x1="1250.85" y1="734.55" x2="1247.08" y2= "735.62" />
  <line class="fil0 str0" x1="1254.6" y1="733.53" x2="1250.85" y2= "734.55" />
  <line class="fil0 str0" x1="1258.33" y1="732.56" x2="1254.6" y2= "733.53" />
  <line class="fil0 str0" x1="1262.05" y1="731.64" x2="1258.33" y2= "732.56" />
  <line class="fil0 str0" x1="1265.74" y1="730.76" x2="1262.05" y2= "731.64" />
  <line class="fil0 str0" x1="1269.41" y1="729.94" x2="1265.74" y2= "730.76" />
  <line class="fil0 str0" x1="1273.06" y1="729.16" x2="1269.41" y2= "729.94" />
  <line class="fil0 str0" x1="1276.69" y1="728.43" x2="1273.06" y2= "729.16" />
  <line class="fil0 str0" x1="1280.29" y1="727.76" x2="1276.69" y2= "728.43" />
  <line class="fil0 str0" x1="1283.87" y1="727.13" x2="1280.29" y2= "727.76" />
  <line class="fil0 str0" x1="1287.43" y1="726.55" x2="1283.87" y2= "727.13" />
  <line class="fil0 str0" x1="1290.96" y1="726.01" x2="1287.43" y2= "726.55" />
  <line class="fil0 str0" x1="1294.47" y1="725.53" x2="1290.96" y2= "726.01" />
  <line class="fil0 str0" x1="1297.95" y1="725.1" x2="1294.47" y2= "725.53" />
  <line class="fil0 str0" x1="1301.4" y1="724.71" x2="1297.95" y2= "725.1" />
  <line class="fil0 str0" x1="1301.4" y1="724.71" x2="1437.35" y2= "710.47" />
  <line class="fil0 str0" x1="1350.08" y1="1055.56" x2="1354.23" y2= "1052.66" />
  <line class="fil0 str0" x1="1354.23" y1="1052.66" x2="1358.38" y2= "1049.8" />
  <line class="fil0 str0" x1="1358.38" y1="1049.8" x2="1362.54" y2= "1046.98" />
  <line class="fil0 str0" x1="1362.54" y1="1046.98" x2="1366.7" y2= "1044.19" />
  <line class="fil0 str0" x1="1366.7" y1="1044.19" x2="1370.87" y2= "1041.44" />
  <line class="fil0 str0" x1="1370.87" y1="1041.44" x2="1375.03" y2= "1038.74" />
  <line class="fil0 str0" x1="1375.03" y1="1038.74" x2="1379.19" y2= "1036.07" />
  <line class="fil0 str0" x1="1379.19" y1="1036.07" x2="1383.36" y2= "1033.44" />
  <line class="fil0 str0" x1="1383.36" y1="1033.44" x2="1387.52" y2= "1030.86" />
  <line class="fil0 str0" x1="1387.52" y1="1030.86" x2="1391.68" y2= "1028.31" />
  <line class="fil0 str0" x1="1391.68" y1="1028.31" x2="1395.84" y2= "1025.81" />
  <line class="fil0 str0" x1="1395.84" y1="1025.81" x2="1399.99" y2= "1023.35" />
  <line class="fil0 str0" x1="1399.99" y1="1023.35" x2="1404.14" y2= "1020.94" />
  <line class="fil0 str0" x1="1404.14" y1="1020.94" x2="1408.29" y2= "1018.56" />
  <line class="fil0 str0" x1="1408.29" y1="1018.56" x2="1412.43" y2= "1016.23" />
  <line class="fil0 str0" x1="1412.43" y1="1016.23" x2="1416.56" y2= "1013.94" />
  <line class="fil0 str0" x1="1416.56" y1="1013.94" x2="1420.69" y2= "1011.7" />
  <line class="fil0 str0" x1="1420.69" y1="1011.7" x2="1424.8" y2= "1009.5" />
  <line class="fil0 str0" x1="1424.8" y1="1009.5" x2="1428.91" y2= "1007.35" />
  <line class="fil0 str0" x1="1428.91" y1="1007.35" x2="1433.01" y2= "1005.24" />
  <line class="fil0 str0" x1="1433.01" y1="1005.24" x2="1437.1" y2= "1003.17" />
  <line class="fil0 str0" x1="1437.1" y1="1003.17" x2="1441.17" y2= "1001.16" />
  <line class="fil0 str0" x1="1441.17" y1="1001.16" x2="1445.24" y2= "999.19" />
  <line class="fil0 str0" x1="1445.24" y1="999.19" x2="1449.29" y2= "997.26" />
  <line class="fil0 str0" x1="1449.29" y1="997.26" x2="1453.33" y2= "995.38" />
  <line class="fil0 str0" x1="1453.33" y1="995.38" x2="1457.35" y2= "993.55" />
  <line class="fil0 str0" x1="1457.35" y1="993.55" x2="1461.36" y2= "991.77" />
  <line class="fil0 str0" x1="1461.36" y1="991.77" x2="1465.36" y2= "990.03" />
  <line class="fil0 str0" x1="1465.36" y1="990.03" x2="1469.34" y2= "988.34" />
  <line class="fil0 str0" x1="1469.34" y1="988.34" x2="1473.3" y2= "986.7" />
  <line class="fil0 str0" x1="1473.3" y1="986.7" x2="1477.24" y2= "985.11" />
  <line class="fil0 str0" x1="1477.24" y1="985.11" x2="1481.17" y2= "983.56" />
  <line class="fil0 str0" x1="1481.17" y1="983.56" x2="1485.07" y2= "982.07" />
  <line class="fil0 str0" x1="1485.07" y1="982.07" x2="1488.96" y2= "980.62" />
  <line class="fil0 str0" x1="1488.96" y1="980.62" x2="1492.82" y2= "979.22" />
  <line class="fil0 str0" x1="1492.82" y1="979.22" x2="1496.67" y2= "977.87" />
  <line class="fil0 str0" x1="1496.67" y1="977.87" x2="1500.49" y2= "976.58" />
  <line class="fil0 str0" x1="1500.49" y1="976.58" x2="1504.29" y2= "975.32" />
  <line class="fil0 str0" x1="1504.29" y1="975.32" x2="1508.07" y2= "974.12" />
  <line class="fil0 str0" x1="1508.07" y1="974.12" x2="1511.83" y2= "972.97" />
  <line class="fil0 str0" x1="1511.83" y1="972.97" x2="1515.56" y2= "971.87" />
  <line class="fil0 str0" x1="1528.06" y1="1241.19" x2="1687.05" y2= "940.83" />
  <line class="fil0 str0" x1="1515.56" y1="971.87" x2="1519.26" y2= "970.82" />
  <line class="fil0 str0" x1="1519.26" y1="970.82" x2="1522.94" y2= "969.81" />
  <line class="fil0 str0" x1="1526.6" y1="968.86" x2="1522.94" y2= "969.81" />
  <line class="fil0 str0" x1="1530.22" y1="967.96" x2="1526.6" y2= "968.86" />
  <line class="fil0 str0" x1="1533.83" y1="967.11" x2="1530.22" y2= "967.96" />
  <line class="fil0 str0" x1="1537.4" y1="966.3" x2="1533.83" y2= "967.11" />
  <line class="fil0 str0" x1="1540.94" y1="965.55" x2="1537.4" y2= "966.3" />
  <line class="fil0 str0" x1="1544.46" y1="964.85" x2="1540.94" y2= "965.55" />
  <line class="fil0 str0" x1="1547.94" y1="964.2" x2="1544.46" y2= "964.85" />
  <line class="fil0 str0" x1="1551.4" y1="963.59" x2="1547.94" y2= "964.2" />
  <line class="fil0 str0" x1="1551.4" y1="963.59" x2="1687.05" y2= "940.83" />
  <line class="fil0 str0" x1="1687.05" y1="940.83" x2="1437.35" y2= "710.47" />
  <g id="Section_x0020_Element_2">
   <line class="fil0 str0" x1="1480.84" y1="705.91" x2="1724.43" y2= "680.39" />
   <line class="fil0 str0" x1="1466.09" y1="736.99" x2="1480.84" y2= "705.91" />
   <line class="fil0 str0" x1="1570.74" y1="1231.27" x2="1546.36" y2= "1206.63" />
   <line class="fil0 str0" x1="1809.72" y1="1175.7" x2="1570.74" y2= "1231.27" />
   <line class="fil0 str0" x1="1809.72" y1="1175.7" x2="1971.92" y2= "893.03" />
   <line class="fil0 str0" x1="1730.34" y1="933.57" x2="1971.92" y2= "893.03" />
   <line class="fil0 str0" x1="1730.34" y1="933.57" x2="1570.74" y2= "1231.27" />
   <line class="fil0 str0" x1="1480.84" y1="705.91" x2="1730.34" y2= "933.57" />
   <line class="fil0 str0" x1="1971.92" y1="893.03" x2="1724.43" y2= "680.39" />
  </g>
  <polygon class="fil1 str1" points="1277.01,1113.54 1280.95,1110.06 1284.9,1106.61 1288.88,1103.19 1292.87,1099.79 1296.88,1096.43 1300.9,1093.09 1304.93,1089.78 1308.98,1086.5 1313.05,1083.26 1317.13,1080.05 1321.21,1076.87 1325.31,1073.72 1329.42,1070.61 1333.54,1067.53 1337.66,1064.48 1341.79,1061.47 1345.93,1058.5 1350.08,1055.56 1354.23,1052.66 1358.38,1049.8 1362.54,1046.98 1366.7,1044.19 1370.87,1041.44 1375.03,1038.74 1379.19,1036.07 1383.36,1033.45 1387.52,1030.86 1391.68,1028.31 1395.84,1025.81 1399.99,1023.35 1404.14,1020.93 1408.29,1018.56 1412.43,1016.23 1416.56,1013.94 1420.68,1011.7 1424.8,1009.5 1428.91,1007.35 1433.01,1005.24 1437.1,1003.17 1441.17,1001.16 1445.24,999.18 1449.29,997.26 1453.33,995.38 1457.35,993.55 1461.36,991.77 1465.36,990.03 1469.34,988.34 1473.3,986.7 1477.24,985.11 1481.16,983.56 1485.07,982.07 1488.96,980.62 1492.82,979.22 1496.67,977.88 1500.49,976.58 1504.29,975.32 1508.07,974.12 1511.83,972.97 1515.56,971.87 1519.26,970.82 1522.94,969.81 1526.6,968.86 1530.22,967.96 1533.82,967.11 1537.4,966.3 1540.94,965.55 1544.46,964.85 1547.94,964.2 1551.4,963.59 1687.05,940.83 1466.1,736.99 1437.35,710.47 1301.4,724.71 1297.95,725.09 1294.47,725.53 1290.96,726.01 1287.43,726.55 1283.87,727.13 1280.29,727.76 1276.69,728.43 1273.06,729.16 1269.41,729.94 1265.74,730.77 1262.05,731.64 1258.33,732.56 1254.6,733.53 1250.85,734.55 1247.08,735.62 1243.29,736.74 1239.49,737.91 1235.66,739.12 1231.82,740.38 1227.97,741.69 1224.1,743.05 1220.22,744.46 1216.32,745.91 1212.42,747.41 1208.5,748.96 1204.57,750.55 1200.62,752.19 1196.67,753.88 1192.71,755.62 1188.74,757.4 1184.76,759.22 1180.78,761.09 1176.79,763.01 1172.8,764.97 1168.8,766.98 1164.79,769.03 1160.78,771.12 1156.77,773.26 1152.76,775.44 1148.75,777.66 1144.74,779.93 1140.72,782.24 1136.71,784.59 1132.7,786.98 1128.7,789.41 1124.69,791.88 1120.69,794.4 1116.7,796.95 1112.71,799.54 1108.73,802.17 1104.75,804.84 1100.78,807.55 1096.83,810.29 1092.88,813.08 1088.94,815.9 1085.01,818.75 1081.1,821.64 1077.19,824.56 1073.3,827.52 1069.43,830.52 1065.56,833.54 1061.72,836.6 1057.89,839.69 1054.07,842.81 1050.28,845.96 1046.5,849.15 1042.74,852.36 1039,855.6 1035.28,858.87 1031.59,862.17 1027.91,865.5 1024.26,868.85 1020.63,872.23 1017.02,875.64 1013.44,879.07 1009.88,882.52 1006.35,885.99 1002.85,889.5 999.37,893.02 995.93,896.56 992.5,900.12 989.11,903.71 985.75,907.31 982.42,910.93 979.12,914.58 975.86,918.23 972.62,921.91 969.42,925.6 966.25,929.3 963.11,933.02 960.01,936.76 956.95,940.51 953.92,944.26 950.92,948.03 947.97,951.82 945.05,955.61 942.16,959.41 939.32,963.22 936.51,967.04 933.75,970.87 931.02,974.7 928.34,978.54 925.69,982.39 923.09,986.23 920.52,990.09 918,993.94 915.52,997.8 913.09,1001.66 910.69,1005.52 908.35,1009.38 906.04,1013.24 903.78,1017.1 901.56,1020.96 899.39,1024.81 897.26,1028.66 895.18,1032.51 893.15,1036.35 891.16,1040.19 889.22,1044.02 887.32,1047.84 885.47,1051.66 883.67,1055.47 881.92,1059.27 880.21,1063.06 878.55,1066.84 876.94,1070.6 875.38,1074.36 873.87,1078.11 793.15,1280.76 746.43,1398.08 735.97,1420.14 723.59,1438.76 709.55,1453.66 694.12,1464.63 677.62,1471.54 660.34,1474.34 642.6,1473.06 624.7,1467.8 606.95,1458.72 589.63,1446.02 573,1429.97 557.32,1410.88 542.83,1389.08 529.72,1364.93 518.19,1338.83 508.38,1311.18 149.13,168.3 28.08,327.83 357.16,1411.47 379.51,1477.02 405.86,1539.57 435.95,1598.29 469.51,1652.35 506.19,1700.88 545.58,1743.05 587.23,1778.01 630.6,1804.94 675.09,1823.06 720.02,1831.69 764.62,1830.23 808.09,1818.21 849.55,1795.37 888.08,1761.66 922.78,1717.28 952.73,1662.75 1100.89,1340.52 1102.65,1336.73 1104.47,1332.93 1106.33,1329.11 1108.24,1325.28 1110.19,1321.44 1112.2,1317.58 1114.26,1313.71 1116.36,1309.83 1118.51,1305.94 1120.71,1302.03 1122.95,1298.12 1125.24,1294.2 1127.58,1290.27 1129.96,1286.34 1132.39,1282.39 1134.87,1278.44 1137.39,1274.49 1139.95,1270.53 1142.56,1266.57 1145.21,1262.6 1147.9,1258.64 1150.64,1254.67 1153.42,1250.7 1156.24,1246.73 1159.1,1242.76 1162.01,1238.79 1164.95,1234.82 1167.94,1230.86 1170.96,1226.9 1174.02,1222.95 1177.12,1219 1180.26,1215.05 1183.43,1211.12 1186.65,1207.19 1189.89,1203.26 1193.18,1199.35 1196.5,1195.45 1199.85,1191.56 1203.23,1187.68 1206.65,1183.81 1210.1,1179.95 1213.59,1176.11 1217.1,1172.28 1220.65,1168.47 1224.22,1164.67 1227.82,1160.89 1231.46,1157.12 1235.12,1153.37 1238.8,1149.65 1242.52,1145.94 1246.26,1142.25 1250.02,1138.58 1253.81,1134.93 1257.62,1131.31 1261.46,1127.71 1265.31,1124.13 1269.19,1120.57 1273.09,1117.04 "/>
  <polygon class="fil1 str1" points="1480.84,705.91 1730.34,933.57 1971.92,893.03 1724.43,680.39 "/>
  <polygon class="fil2 str1" points="1420.68,1011.7 1416.56,1013.94 1412.43,1016.23 1408.29,1018.56 1404.14,1020.93 1399.99,1023.35 1395.84,1025.81 1391.68,1028.31 1387.52,1030.86 1383.36,1033.45 1379.19,1036.07 1375.03,1038.74 1370.87,1041.44 1366.7,1044.19 1362.54,1046.98 1358.38,1049.8 1354.23,1052.66 1350.08,1055.56 1345.93,1058.5 1341.79,1061.47 1337.66,1064.48 1333.54,1067.53 1329.42,1070.61 1325.31,1073.72 1321.21,1076.87 1317.13,1080.05 1313.05,1083.26 1308.98,1086.5 1304.93,1089.78 1300.9,1093.09 1296.88,1096.43 1292.87,1099.79 1288.88,1103.19 1284.9,1106.61 1280.95,1110.06 1277.01,1113.54 1273.09,1117.04 1269.19,1120.57 1265.31,1124.13 1261.46,1127.71 1257.62,1131.31 1253.81,1134.93 1250.02,1138.58 1246.26,1142.25 1242.52,1145.94 1238.8,1149.65 1235.12,1153.37 1231.46,1157.12 1227.82,1160.89 1224.22,1164.67 1220.65,1168.47 1217.1,1172.28 1213.59,1176.11 1210.1,1179.95 1206.65,1183.81 1203.23,1187.68 1199.85,1191.56 1196.5,1195.45 1193.18,1199.35 1189.89,1203.26 1186.65,1207.19 1183.43,1211.12 1180.26,1215.05 1177.12,1219 1174.02,1222.95 1170.96,1226.9 1167.94,1230.86 1164.95,1234.82 1162.01,1238.79 1159.1,1242.76 1156.24,1246.73 1153.42,1250.7 1150.64,1254.67 1147.9,1258.64 1145.21,1262.6 1142.56,1266.57 1139.95,1270.53 1137.39,1274.49 1134.87,1278.44 1132.39,1282.39 1129.96,1286.34 1127.58,1290.27 1125.24,1294.2 1122.95,1298.12 1120.71,1302.03 1118.51,1305.94 1116.36,1309.83 1114.26,1313.71 1112.2,1317.58 1110.19,1321.44 1108.24,1325.28 1106.33,1329.11 1104.47,1332.93 1102.65,1336.73 1100.89,1340.52 952.73,1662.75 922.78,1717.28 888.08,1761.66 849.55,1795.37 808.09,1818.21 1087.7,1730.05 1130.81,1707.25 1170.98,1674.28 1207.28,1631.39 1238.79,1579.1 1394.66,1272.21 1528.06,1241.19 1546.36,1206.63 1687.05,940.83 1551.4,963.59 1547.94,964.2 1544.46,964.85 1540.94,965.55 1537.4,966.3 1533.82,967.11 1530.22,967.96 1526.6,968.86 1522.94,969.81 1519.26,970.82 1515.56,971.87 1511.83,972.97 1508.07,974.12 1504.29,975.32 1500.49,976.58 1496.67,977.88 1492.82,979.22 1488.96,980.62 1485.07,982.07 1481.16,983.56 1477.24,985.11 1473.3,986.7 1469.34,988.34 1465.36,990.03 1461.36,991.77 1457.35,993.55 1453.33,995.38 1449.29,997.26 1445.24,999.18 1441.17,1001.16 1437.1,1003.17 1433.01,1005.24 1428.91,1007.35 1424.8,1009.5 "/>
  <polygon class="fil2 str1" points="1730.34,933.57 1570.74,1231.27 1809.72,1175.7 1971.92,893.03 "/>
  <polygon class="fil2 str1" points="1570.74,1231.27 1730.34,933.57 1480.84,705.91 1466.1,736.99 1687.05,940.83 1546.36,1206.63 "/>
  <polygon class="fil2 str1" points="783.8,1255.91 424.65,172.71 149.13,168.3 508.38,1311.18 518.19,1338.83 529.72,1364.93 542.83,1389.08 557.32,1410.88 573,1429.97 589.63,1446.02 606.95,1458.72 624.7,1467.8 642.6,1473.06 660.34,1474.34 677.62,1471.54 694.12,1464.63 709.55,1453.66 723.59,1438.76 735.97,1420.14 746.43,1398.08 793.16,1280.76 "/>
 </g>
</svg>
